<mxfile host="65bd71144e">
    <diagram id="hX3XZqZQVJ2_Us2dHmqh" name="第 1 页">
        <mxGraphModel dx="1806" dy="551" grid="1" gridSize="10" guides="1" tooltips="1" connect="1" arrows="1" fold="1" page="1" pageScale="1" pageWidth="827" pageHeight="1169" background="#ffffff" math="0" shadow="0">
            <root>
                <mxCell id="0"/>
                <mxCell id="1" parent="0"/>
                <mxCell id="2" value="Server" style="rounded=0;whiteSpace=wrap;html=1;" vertex="1" parent="1">
                    <mxGeometry x="-40" width="850" height="560" as="geometry"/>
                </mxCell>
                <mxCell id="3" value="&lt;span style=&quot;background-color: rgb(0, 0, 0);&quot;&gt;EventLoop&lt;/span&gt;" style="rounded=0;whiteSpace=wrap;html=1;labelBackgroundColor=#E0E0E0;" vertex="1" parent="1">
                    <mxGeometry x="-30" y="20" width="350" height="230" as="geometry"/>
                </mxCell>
                <mxCell id="4" value="epoll" style="shape=process;whiteSpace=wrap;html=1;backgroundOutline=1;labelBackgroundColor=#000000;" vertex="1" parent="1">
                    <mxGeometry x="-20" y="180" width="120" height="60" as="geometry"/>
                </mxCell>
            </root>
        </mxGraphModel>
    </diagram>
</mxfile>